{"asset":{"version":"2.0","generator":"babylon.js glTF exporter for 3dsmax 2021 v20220628.14"},"scene":0,"scenes":[{"nodes":[0]}],"nodes":[{"mesh":0,"name":"SM_510107063_D001_031_G_001"}],"meshes":[{"primitives":[{"attributes":{"POSITION":1,"NORMAL":2,"TEXCOORD_0":3,"TEXCOORD_1":4},"indices":0,"material":0},{"attributes":{"POSITION":6,"NORMAL":7,"TEXCOORD_0":8,"TEXCOORD_1":9},"indices":5,"material":1},{"attributes":{"POSITION":11,"NORMAL":12,"TEXCOORD_0":13,"TEXCOORD_1":14},"indices":10,"material":2},{"attributes":{"POSITION":16,"NORMAL":17,"TEXCOORD_0":18,"TEXCOORD_1":19},"indices":15,"material":3},{"attributes":{"POSITION":21,"NORMAL":22,"TEXCOORD_0":23,"TEXCOORD_1":24},"indices":20,"material":4}],"name":"SM_510107063_D001_031_G_001"}],"accessors":[{"bufferView":0,"componentType":5125,"count":492690,"type":"SCALAR","name":"accessorIndices"},{"bufferView":1,"componentType":5126,"count":162348,"max":[58.3077469,181.52298,54.8205147],"min":[-58.02349,5.04292965,-54.8205147],"type":"VEC3","name":"accessorPositions"},{"bufferView":1,"byteOffset":1948176,"componentType":5126,"count":162348,"type":"VEC3","name":"accessorNormals"},{"bufferView":2,"componentType":5126,"count":162348,"type":"VEC2","name":"accessorUVs"},{"bufferView":2,"byteOffset":1298784,"componentType":5126,"count":162348,"type":"VEC2","name":"accessorUV2s"},{"bufferView":0,"byteOffset":1970760,"componentType":5125,"count":19431,"type":"SCALAR","name":"accessorIndices"},{"bufferView":1,"byteOffset":3896352,"componentType":5126,"count":7844,"max":[57.4769325,110.707886,54.0337868],"min":[-58.3077469,0.0,-54.8193626],"type":"VEC3","name":"accessorPositions"},{"bufferView":1,"byteOffset":3990480,"componentType":5126,"count":7844,"type":"VEC3","name":"accessorNormals"},{"bufferView":2,"byteOffset":2597568,"componentType":5126,"count":7844,"type":"VEC2","name":"accessorUVs"},{"bufferView":2,"byteOffset":2660320,"componentType":5126,"count":7844,"type":"VEC2","name":"accessorUV2s"},{"bufferView":0,"byteOffset":2048484,"componentType":5125,"count":26364,"type":"SCALAR","name":"accessorIndices"},{"bufferView":1,"byteOffset":4084608,"componentType":5126,"count":8775,"max":[50.5639,180.625732,54.60301],"min":[0.8403247,4.77021456,-22.7229748],"type":"VEC3","name":"accessorPositions"},{"bufferView":1,"byteOffset":4189908,"componentType":5126,"count":8775,"type":"VEC3","name":"accessorNormals"},{"bufferView":2,"byteOffset":2723072,"componentType":5126,"count":8775,"type":"VEC2","name":"accessorUVs"},{"bufferView":2,"byteOffset":2793272,"componentType":5126,"count":8775,"type":"VEC2","name":"accessorUV2s"},{"bufferView":0,"byteOffset":2153940,"componentType":5125,"count":2199,"type":"SCALAR","name":"accessorIndices"},{"bufferView":1,"byteOffset":4295208,"componentType":5126,"count":1170,"max":[47.5696754,171.917023,-22.21615],"min":[1.89575493,16.1173134,-53.7142754],"type":"VEC3","name":"accessorPositions"},{"bufferView":1,"byteOffset":4309248,"componentType":5126,"count":1170,"type":"VEC3","name":"accessorNormals"},{"bufferView":2,"byteOffset":2863472,"componentType":5126,"count":1170,"type":"VEC2","name":"accessorUVs"},{"bufferView":2,"byteOffset":2872832,"componentType":5126,"count":1170,"type":"VEC2","name":"accessorUV2s"},{"bufferView":0,"byteOffset":2162736,"componentType":5125,"count":8892,"type":"SCALAR","name":"accessorIndices"},{"bufferView":1,"byteOffset":4323288,"componentType":5126,"count":3556,"max":[-16.356884,164.074142,52.3705025],"min":[-57.1260452,16.1296082,10.5752316],"type":"VEC3","name":"accessorPositions"},{"bufferView":1,"byteOffset":4365960,"componentType":5126,"count":3556,"type":"VEC3","name":"accessorNormals"},{"bufferView":2,"byteOffset":2882192,"componentType":5126,"count":3556,"type":"VEC2","name":"accessorUVs"},{"bufferView":2,"byteOffset":2910640,"componentType":5126,"count":3556,"type":"VEC2","name":"accessorUV2s"}],"bufferViews":[{"buffer":0,"byteLength":2198304,"name":"bufferViewScalar"},{"buffer":0,"byteOffset":2198304,"byteLength":4408632,"byteStride":12,"name":"bufferViewFloatVec3"},{"buffer":0,"byteOffset":6606936,"byteLength":2939088,"byteStride":8,"name":"bufferViewFloatVec2"}],"buffers":[{"uri":"jrc8.bin","byteLength":9546024}],"materials":[{"pbrMetallicRoughness":{"baseColorTexture":{"index":0},"metallicFactor":0.0,"roughnessFactor":0.9},"doubleSided":true,"name":"MAT_D001_031_001"},{"pbrMetallicRoughness":{"baseColorTexture":{"index":1},"metallicFactor":0.0,"roughnessFactor":0.9},"doubleSided":true,"name":"MAT_D001_031_005"},{"pbrMetallicRoughness":{"baseColorTexture":{"index":2},"metallicFactor":0.0,"roughnessFactor":0.9},"doubleSided":true,"name":"MAT_D001_031_004"},{"pbrMetallicRoughness":{"baseColorTexture":{"index":3},"metallicFactor":0.0,"roughnessFactor":0.9},"doubleSided":true,"name":"MAT_D001_031_003"},{"pbrMetallicRoughness":{"baseColorTexture":{"index":4},"metallicFactor":0.0,"roughnessFactor":0.9},"doubleSided":true,"name":"MAT_D001_031_002"}],"textures":[{"sampler":0,"source":0,"name":"TEX_D001_031_001.jpg"},{"sampler":0,"source":1,"name":"TEX_D001_031_005.jpg"},{"sampler":0,"source":2,"name":"TEX_D001_031_004.jpg"},{"sampler":0,"source":3,"name":"TEX_D001_031_003.jpg"},{"sampler":0,"source":4,"name":"TEX_D001_031_002.jpg"}],"images":[{"uri":"TEX_D001_031_001.jpg"},{"uri":"TEX_D001_031_005.jpg"},{"uri":"TEX_D001_031_004.jpg"},{"uri":"TEX_D001_031_003.jpg"},{"uri":"TEX_D001_031_002.jpg"}],"samplers":[{"magFilter":9729,"minFilter":9987}]}